<svg width="80" height="57" viewBox="0 0 80 57" fill="none" xmlns="http://www.w3.org/2000/svg">
<path fill-rule="evenodd" clip-rule="evenodd" d="M12.2487 34.0397C12.9054 34.2422 13.5311 34.3037 14.1258 34.224C14.3036 34.2001 14.4801 34.1684 14.6553 34.1287C12.2074 36.6636 11.0714 39.3479 11.2471 42.1817C11.3238 43.4356 12.3191 43.8925 14.2331 43.5522C15.8399 43.2665 17.3175 42.5285 18.666 41.3381C20.0575 40.1157 20.8601 38.8029 21.0738 37.3998C21.1111 37.1982 21.047 37.1121 20.8816 37.1415C20.7399 37.1667 20.6136 37.3476 20.5028 37.6842C20.2008 38.591 19.5187 39.5533 18.4565 40.5709C17.222 41.7167 16.0494 42.3883 14.9388 42.5857C13.7337 42.8 13.0493 42.4463 12.8854 41.5248C12.3813 38.6893 14.0926 35.8377 18.0193 32.9701C21.2571 30.615 24.4473 29.1581 27.59 28.5994C29.0078 28.3474 30.4487 28.2253 31.9126 28.2331C33.3961 28.2132 34.6379 28.4799 35.6382 29.0334C36.7457 29.6409 37.3918 30.4645 37.5766 31.5042C37.6691 32.0241 37.6281 32.6164 37.4538 33.2812C36.5874 36.3604 33.4132 38.3873 27.9311 39.3619L26.9741 39.532C26.6864 39.5588 26.4104 39.5835 26.1463 39.606C28.5313 34.648 30.0667 32.3153 30.7525 32.6077C30.8596 32.6618 30.9257 32.7598 30.9509 32.9015L30.9761 33.0433C30.8638 33.2339 30.8181 33.3883 30.8391 33.5065C30.8685 33.6719 30.952 33.7301 31.0896 33.6813C31.2313 33.6561 31.3306 33.5288 31.3873 33.2993C31.4634 33.042 31.4826 32.807 31.4448 32.5944C31.3524 32.0745 31.0226 31.865 30.4555 31.9658C30.0302 32.0414 29.5177 32.4494 28.918 33.1898C28.3142 33.9066 27.6591 34.8153 26.9528 35.9159C26.2702 37.0123 25.5605 38.1623 24.8238 39.3658C24.0225 38.972 23.4079 38.8741 22.9799 39.072C22.2768 39.3676 21.9736 39.7872 22.0702 40.3307C22.1416 40.7324 22.4254 40.8891 22.9217 40.8009C23.1107 40.7673 23.3483 40.6641 23.6345 40.4914L24.2394 40.6032C24.0561 40.8064 23.8466 41.1362 23.6109 41.5925C19.4894 49.8087 15.915 54.2469 12.8878 54.907C11.0337 55.3097 9.98902 54.8495 9.75377 53.5262C9.62774 52.8173 9.76085 51.9893 10.1531 51.042C10.5411 50.0711 11.0899 49.1813 11.7993 48.3726C12.1033 48.0261 12.2448 47.7937 12.2238 47.6756C12.2154 47.6283 12.164 47.6131 12.0694 47.6299C11.5496 47.7223 10.9691 48.2277 10.328 49.1461C10.0365 49.5636 9.7619 50.0755 9.50408 50.682C9.24625 51.2885 9.05381 51.9199 8.92673 52.5763C8.79546 53.2091 8.77603 53.7854 8.86845 54.3052C9.01548 55.1322 9.40406 55.6726 10.0342 55.9262C10.6407 56.184 11.3692 56.2373 12.2199 56.0861C15.0791 55.5778 17.6634 53.7289 19.9727 50.5394C20.5015 49.8116 21.1647 48.743 21.9623 47.3337C22.7557 45.9007 23.6836 44.1269 24.7459 42.0123C24.7007 42.581 25.3694 44.2172 26.752 46.9209C27.3527 48.1061 28.0062 49.2453 28.7125 50.3385C29.4188 51.4318 30.1699 52.2977 30.966 52.9362C31.7857 53.5705 32.6681 53.8037 33.6133 53.6356C34.7002 53.4424 35.5653 52.6182 36.2086 51.1632C36.6828 50.2037 36.8843 49.4233 36.813 48.8219C37.4627 49.1231 38.137 49.2115 38.8361 49.0872C40.0884 48.8646 41.5067 47.9299 43.0909 46.2832C43.856 45.5134 44.5515 44.695 45.1774 43.8281C45.2295 43.7559 45.2813 43.6833 45.3325 43.6102C45.4267 43.4972 45.5306 43.3594 45.6442 43.1966C46.2061 44.4374 46.812 45.3779 47.4621 46.018C48.1358 46.6539 49.028 46.8731 50.1385 46.6757C50.6111 46.5916 51.0517 46.4646 51.4602 46.2944C51.8687 46.1243 52.2077 45.9056 52.4771 45.6383L53.479 44.6923C54.41 44.3074 55.2026 43.8984 55.8569 43.4652C56.5069 43.0083 57.1027 42.4515 57.644 41.7946C57.8221 41.569 58.0023 41.3257 58.1847 41.0646C58.0667 41.7666 58.0484 42.3467 58.1299 42.8051C58.298 43.7503 58.6283 44.3741 59.1208 44.6766C59.6328 44.9512 60.2668 45.0213 61.023 44.8869C61.7791 44.7524 62.5712 44.4776 63.3993 44.0622C64.251 43.6426 65.1088 43.0514 65.9725 42.2884C66.7308 41.6173 67.3979 40.9137 67.974 40.1775C68.178 39.9157 68.3731 39.6527 68.5595 39.3884C68.4659 39.9551 68.4572 40.4532 68.5335 40.8824C68.6259 41.4023 68.8879 41.9164 69.3196 42.4246C69.747 42.9093 70.2561 43.0991 70.8468 42.9941L71.4139 42.8933C72.7372 42.658 74.1284 41.2285 75.5877 38.6045C77.0165 36.0835 77.5316 34.4562 77.133 33.7227C78.8417 32.6389 79.6721 31.894 79.6244 31.4881C78.8299 32.0925 78.1137 32.4514 77.4757 32.5648C77.2866 32.5984 77.1622 32.584 77.1023 32.5215C77.1076 32.2768 77.1031 32.046 77.0889 31.8292C77.0984 31.6081 77.0863 31.403 77.0527 31.214C76.8258 29.938 76.1099 29.4071 74.9048 29.6214C73.6288 29.8482 72.18 31.4343 70.5585 34.3796C69.9321 35.5203 69.4474 36.5464 69.1045 37.4579C68.5396 38.3414 67.9507 39.1516 67.3375 39.8884C66.7142 40.633 66.129 41.249 65.5819 41.7363C65.3708 41.92 65.0166 42.1902 64.5193 42.5467C64.0415 42.8755 63.524 43.1869 62.9669 43.4809C62.4098 43.775 61.9185 43.9598 61.4932 44.0354C60.8552 44.1488 60.3734 44.1126 60.0479 43.9267C59.7181 43.7172 59.5196 43.4234 59.4524 43.0453C59.3768 42.62 59.4253 42.002 59.5981 41.1912C59.7903 40.3526 60.0471 39.466 60.3684 38.5313C60.6898 37.5966 61.0258 36.7447 61.3766 35.9754C61.7274 35.2061 62.0429 34.6503 62.3233 34.3079C62.39 34.2717 62.8264 34.121 63.6324 33.8558C64.4621 33.5864 65.6496 33.2047 67.195 32.7106C69.9202 31.8604 71.264 31.329 71.2261 31.1164C71.2177 31.0691 71.176 31.0399 71.1009 31.0289C71.0536 31.0373 70.8195 31.0911 70.3983 31.1904C69.973 31.266 69.4671 31.3681 68.8805 31.4968L67.2146 31.793L66.0095 32.0072L64.5209 32.2719C64.1192 32.3433 63.8099 32.3861 63.593 32.4002C64.5004 30.9226 64.9268 30.0302 64.8722 29.723C64.8344 29.5104 64.6075 29.3313 64.1916 29.1858C63.855 29.075 63.604 29.0344 63.4386 29.0638L63.3323 29.0827C62.9794 29.2917 62.5554 29.8546 62.0603 30.7714C61.7205 31.4656 61.3863 32.1222 61.0576 32.7413L59.0018 33.1068C58.9115 33.1472 58.8309 33.1737 58.76 33.1863L58.6891 33.1989C58.5279 33.252 58.3536 33.3683 58.1661 33.5479C58.0023 33.7233 57.9435 33.9409 57.9897 34.2008C58.0863 34.7443 58.4891 34.953 59.198 34.827C59.4342 34.785 59.6997 34.7012 59.9943 34.5757C59.6661 35.6091 59.34 36.6544 59.016 37.7114C58.847 38.2628 58.6976 38.7941 58.5679 39.3054C57.7873 40.6182 57.0096 41.6167 56.2349 42.301C55.3711 43.064 54.4451 43.5455 53.4569 43.7456C53.5036 43.3229 53.5417 42.6458 53.5711 41.7142C53.6005 40.7827 53.6212 39.5968 53.6333 38.1564C53.6517 36.2031 53.8084 34.8223 54.1035 34.0142C54.123 33.9863 54.1673 33.8931 54.2366 33.7346C54.3254 33.5481 54.4627 33.2922 54.6486 32.9666C54.8885 32.5339 54.9833 32.1758 54.9329 31.8922C54.8321 31.3251 54.4036 31.1088 53.6475 31.2432C53.4821 31.2726 53.2376 31.4745 52.9142 31.8489C52.6143 32.2191 52.2098 32.7542 51.7004 33.4542L47.978 38.4305C47.4191 39.1624 46.9378 39.815 46.5339 40.3885C46.4827 40.4473 46.4315 40.5204 46.3806 40.6078C45.9859 41.1765 45.6732 41.6613 45.4426 42.0624L44.9632 42.9343C44.4581 43.6577 43.8968 44.3728 43.2792 45.0797C41.6939 46.9947 40.3105 48.0572 39.1291 48.2673C37.9712 48.4731 37.2831 47.9617 37.0646 46.733C36.9386 46.0241 36.9961 45.3191 37.2371 44.6181C37.3873 44.6402 37.5569 44.6344 37.7459 44.6008C39.0219 44.3739 40.4925 43.5275 42.1576 42.0614C44.0337 40.4115 44.8542 38.925 44.619 37.6017C44.5433 37.1764 44.3031 36.8534 43.8983 36.6329C43.5128 36.3845 43.0484 36.3086 42.5049 36.4053C40.8508 36.6993 39.1655 38.1203 37.449 40.668C35.7755 43.1838 35.0879 45.2805 35.3862 46.9582C35.4812 47.493 35.7003 47.9356 36.0434 48.2858C36.0289 48.3777 36.0175 48.4833 36.0093 48.6025C35.7047 50.7287 35.0562 51.88 34.0638 52.0564C33.6148 52.1362 33.1344 52.0388 32.6224 51.7642C32.1341 51.4854 31.6525 51.1078 31.1778 50.6315C30.7031 50.1553 30.2576 49.6373 29.8412 49.0775C29.4484 48.5136 29.1231 47.9864 28.8653 47.4959C27.9857 45.7022 27.2637 44.2461 26.6992 43.1276C26.1348 42.0092 25.7417 41.238 25.5201 40.8143C26.0095 40.8248 26.5301 40.8054 27.082 40.756C27.6575 40.7024 28.2525 40.621 28.8668 40.5118C30.0011 40.3102 31.1539 40.0077 32.3254 39.6044C33.4969 39.2012 34.5904 38.702 35.606 38.1071C36.6215 37.5122 37.4861 36.8222 38.1997 36.0372C38.9091 35.2285 39.3827 34.3277 39.6206 33.3347C39.7671 32.6505 39.792 32.0367 39.6954 31.4932C39.4686 30.2172 38.704 29.2074 37.4018 28.4639C36.1552 27.7592 34.6282 27.3969 32.8208 27.377C31.037 27.3528 29.2236 27.5046 27.3805 27.8322C24.5578 28.3341 22.0407 29.1582 19.8292 30.3046C20.0442 30.0314 20.2544 29.7473 20.4601 29.4523C21.3537 28.1702 22.1069 26.8343 22.7197 25.4446C24.916 20.3315 26.7924 15.903 28.3488 12.1591C29.9291 8.41198 31.2013 5.34782 32.1656 2.96663C32.183 2.91587 32.1885 2.8667 32.1821 2.81913C32.1995 2.76837 32.205 2.7192 32.1987 2.67162C32.1668 2.43375 31.9605 2.34032 31.5799 2.39133C30.4857 2.53798 29.545 3.37838 28.7578 4.91255C27.6698 7.0924 25.9548 9.74371 23.6128 12.8665C20.9651 16.4177 18.3289 19.4225 15.7042 21.8809C14.7802 22.7554 14.0565 23.2277 13.5332 23.2979C13.0336 23.3648 12.7408 23.0772 12.6547 22.4349C12.5655 21.7689 12.6973 20.8553 13.0502 19.6941C13.3999 18.5091 13.8258 17.5319 14.3281 16.7624C15.5669 14.8044 16.607 13.079 17.4481 11.586C18.313 10.0899 18.9807 8.8381 19.451 7.8307C20.5643 5.47795 21.0477 3.75447 20.901 2.66026C20.7799 1.75634 20.3116 1.1532 19.4962 0.850832C18.6808 0.548466 17.7498 0.46742 16.7032 0.607696C15.5852 0.757535 14.3499 1.1168 12.9975 1.6855C11.6419 2.2304 10.326 2.89106 9.0498 3.66746C7.79741 4.44068 6.7417 5.23596 5.88266 6.05331C1.60169 10.0655 -0.322006 13.6892 0.111573 16.9243C0.2646 18.0661 0.719628 19.0221 1.47666 19.7923C2.23368 20.5626 3.23067 20.8649 4.46761 20.6991C6.03757 20.4887 7.65155 19.7033 9.30955 18.343C10.8106 17.0764 11.6211 15.9871 11.741 15.0751C11.5365 15.1751 10.6441 15.9243 9.06382 17.3226C7.72928 18.5669 6.45544 19.2704 5.24229 19.433C4.31458 19.5573 3.49931 19.4365 2.79648 19.0706C2.11425 18.6778 1.703 17.958 1.56272 16.9114C1.42563 15.8885 1.56921 14.7917 1.99346 13.621C2.4177 12.4503 3.02673 11.3032 3.82053 10.1798C4.61434 9.05641 5.48834 8.07965 6.44252 7.24955C10.4827 3.6086 13.7635 1.61916 16.2849 1.28122C17.284 1.14732 18.0271 1.18092 18.5141 1.38201C18.9979 1.55931 19.2749 1.90961 19.345 2.43293C19.3929 2.78975 19.3519 3.20688 19.2222 3.68435C19.1163 4.15862 18.9366 4.71542 18.6833 5.35473C17.9866 7.02205 16.8375 9.19799 15.2359 11.8825C14.74 12.6996 14.2426 13.5048 13.7435 14.2982L12.2464 16.6781C10.8999 18.9168 10.3541 20.9877 10.6092 22.8907C10.8228 24.4844 11.6075 25.1904 12.9634 25.0087C13.8197 24.894 14.622 24.5564 15.3702 23.996C16.1422 23.4325 16.895 22.7262 17.6287 21.8772C18.3625 21.0282 19.1001 20.1182 19.8417 19.1471C20.2537 18.6076 20.8907 17.7594 21.7526 16.6027C22.6146 15.4459 23.6984 13.9568 25.004 12.1352L28.184 7.67727L23.2965 19.9916C21.6135 24.2368 20.0274 27.4883 18.5381 29.7462C17.0726 32.0008 15.6025 33.227 14.1276 33.4246C13.1761 33.5522 12.5123 33.3869 12.1361 32.9288C11.7631 32.4945 11.3654 31.785 10.9428 30.8005L10.6478 30.7673L10.398 30.8008C9.89851 30.8678 9.68222 31.151 9.74917 31.6505C9.82249 32.1977 10.0932 32.682 10.5614 33.1035C11.0533 33.5219 11.6157 33.8339 12.2487 34.0397ZM33.0076 22.0317C33.6327 22.3596 34.2307 22.4853 34.8016 22.4088C35.1347 22.3641 35.5437 22.164 36.0288 21.8084C36.5376 21.4497 37.0804 20.8926 37.6572 20.1373L39.5825 17.7C39.5415 18.1171 39.5482 18.5279 39.6024 18.9322C39.7586 20.0978 40.3871 20.8127 41.4879 21.0768C41.6878 21.1226 41.8948 21.1312 42.1089 21.1025C43.2371 20.9513 44.5741 19.7649 46.1199 17.5433C46.0221 17.98 45.9935 18.3494 46.034 18.6514C46.0882 19.0558 46.2954 19.4276 46.6557 19.7667C47.0159 20.1059 47.4577 20.2404 47.981 20.1702C48.9563 20.0395 50.1682 19.2354 51.6168 17.7579L56.3119 12.9516L55.396 16.416C55.0385 17.723 54.6293 18.916 54.1685 19.9947C53.7347 21.0941 53.2953 22.0611 52.8502 22.8956C51.5703 25.2706 50.2525 26.549 48.8966 26.7307C48.3019 26.8104 47.6555 26.5944 46.9573 26.0826C46.4178 25.6706 45.9814 25.3054 45.6481 24.9868C45.7328 25.7988 46.1051 26.4995 46.7653 27.089C47.4223 27.6548 48.1314 27.8866 48.8926 27.7846C51.1999 27.4754 53.2586 25.3107 55.0687 21.2907C56.2244 18.3511 57.0754 16.1183 57.6215 14.5922C57.6531 14.4669 57.7948 14.1694 58.0467 13.6998C58.2954 13.2064 58.6272 12.5202 59.0421 11.6413C59.8435 10.0326 60.2378 9.18069 60.2251 9.08554C60.1549 8.56221 59.7987 8.34359 59.1565 8.42967C58.7045 8.49024 58.2876 8.81248 57.9058 9.39637C57.7712 9.65656 57.6246 9.91835 57.4662 10.1817C57.3046 10.4213 57.1446 10.6728 56.9862 10.9362C56.5124 11.5566 55.9174 12.2659 55.201 13.0642C54.4847 13.8624 53.659 14.7479 52.724 15.7208C50.4434 18.0362 48.9224 19.245 48.1612 19.347C47.7569 19.4012 47.534 19.2737 47.4925 18.9644C47.3873 18.1794 48.2315 16.5287 50.0251 14.0121C51.8393 11.4686 52.7321 10.0898 52.7034 9.87569C52.63 9.32858 52.2247 9.10445 51.4873 9.20328C50.6071 9.32123 49.4448 10.6756 48.0001 13.2665C47.8189 13.5877 47.6502 13.8969 47.4938 14.1939C45.0538 18.1128 43.2594 20.1492 42.1107 20.3032C41.7063 20.3574 41.408 20.1189 41.2157 19.5877C40.9646 18.7981 41.4607 17.1698 42.704 14.7027C43.941 12.1882 44.5443 10.9087 44.5142 10.8643C44.4681 10.701 44.3236 10.5266 44.0809 10.3412C43.8381 10.1558 43.574 10.0822 43.2885 10.1205C43.1934 10.1333 43.1133 10.1682 43.0483 10.2253C42.9801 10.2587 42.8985 10.2817 42.8033 10.2945C42.7558 10.3009 42.6653 10.1677 42.5319 9.89501C42.4222 9.61913 42.273 9.40909 42.0842 9.26489C41.7399 9.04468 41.2942 8.97123 40.7471 9.04456C38.7251 9.31555 36.6224 10.8807 34.4389 13.7401C32.2316 16.6027 31.3696 18.9339 31.853 20.7336C31.9977 21.2712 32.3826 21.7039 33.0076 22.0317ZM39.4056 16.3798C37.4317 19.7196 35.755 21.4819 34.3753 21.6668C33.9233 21.7274 33.5996 21.4802 33.4042 20.9253C32.9353 19.4141 33.826 17.2971 36.0762 14.574C38.2376 11.9113 40.0439 10.4827 41.4949 10.2882C41.9231 10.2309 42.2546 10.3559 42.4896 10.6634L39.4056 16.3798ZM60.9183 18.291C61.5433 18.6189 62.1413 18.7446 62.7122 18.6681C63.0453 18.6234 63.4543 18.4233 63.9394 18.0677C64.4482 17.709 64.991 17.1519 65.5678 16.3966L67.4931 13.9593C67.4521 14.3764 67.4588 14.7872 67.513 15.1915C67.6692 16.3571 68.2977 17.072 69.3986 17.3361C69.5984 17.3819 69.8054 17.3905 70.0195 17.3618C71.637 17.145 73.6837 14.8004 76.1595 10.3279C76.3354 10.0137 76.4105 9.76151 76.385 9.57121C76.3627 9.4047 76.2921 9.32941 76.1731 9.34535C76.1018 9.35492 76.0368 9.41206 75.9782 9.51677C73.2439 14.0481 71.2582 16.3967 70.0213 16.5625C69.6169 16.6167 69.3186 16.3782 69.1263 15.847C68.8752 15.0574 69.3713 13.4291 70.6146 10.9621C71.8516 8.44746 72.4549 7.16797 72.4248 7.12358C72.3787 6.96026 72.2342 6.7859 71.9915 6.60051C71.7487 6.41511 71.4846 6.34155 71.1991 6.3798C71.104 6.39256 71.0239 6.4275 70.9589 6.48464C70.8907 6.51799 70.8091 6.54104 70.7139 6.55379C70.6664 6.56017 70.5759 6.42701 70.4425 6.15432C70.3328 5.87843 70.1836 5.66839 69.9948 5.5242C69.6505 5.30398 69.2048 5.23054 68.6577 5.30386C66.6357 5.57485 64.533 7.14004 62.3495 9.99943C60.1422 12.862 59.2802 15.1932 59.7636 16.9929C59.9083 17.5305 60.2932 17.9632 60.9183 18.291ZM67.3162 12.6391C65.3423 15.9789 63.6656 17.7412 62.2859 17.9261C61.8339 17.9867 61.5102 17.7395 61.3148 17.1846C60.8459 15.6734 61.7366 13.5564 63.9868 10.8333C66.1482 8.17061 67.9545 6.74202 69.4055 6.54755C69.8337 6.49016 70.1652 6.61523 70.4002 6.92275L67.3162 12.6391ZM41.3731 41.7621C40.0913 42.9163 39.0015 43.5732 38.1035 43.7328C37.9381 43.7622 37.7803 43.7659 37.6302 43.7438C37.91 42.9871 38.2789 42.2512 38.7368 41.536C39.1947 40.8208 39.6846 40.1487 40.2066 39.5196C41.2935 38.2295 42.1914 37.5214 42.9003 37.3953C43.3965 37.3071 43.6719 37.4166 43.7266 37.7238C43.7854 38.0546 43.699 38.46 43.4674 38.9399C43.2595 39.4157 42.957 39.9082 42.5601 40.4176C42.1825 40.8991 41.7868 41.3472 41.3731 41.7621ZM51.5201 44.163C51.2118 44.486 50.786 44.6958 50.2425 44.7924C49.4391 44.9352 48.7034 44.7735 48.0355 44.3072C47.3912 43.8367 47.0323 43.1205 46.9588 42.1585C46.9488 41.9653 47.0284 41.6586 47.1974 41.2385C47.3623 40.7948 47.7729 40.088 48.4293 39.1182C49.0857 38.1483 49.7602 37.2118 50.4528 36.3086C51.1454 35.4054 51.7277 34.7047 52.1998 34.2064L52.2722 35.4367C52.308 36.186 52.3382 36.9729 52.3628 37.7973C52.4069 38.5938 52.408 39.4224 52.366 40.2831C52.3019 41.2939 52.1988 42.1532 52.0565 42.8611C51.9336 43.5411 51.7548 43.9751 51.5201 44.163ZM74.6968 38.3241C73.4455 40.4723 72.3119 41.6367 71.2958 41.8174C70.7523 41.914 70.4036 41.5981 70.2498 40.8698C70.0219 39.8622 70.4842 38.2808 71.6368 36.1258C72.8046 33.9193 73.7902 32.7447 74.5936 32.6018C75.3162 33.3753 75.8854 33.8348 76.3013 33.9802C76.4441 34.7836 75.9093 36.2316 74.6968 38.3241Z" fill="#FFB577"/>
</svg>
